<svg class="new-footer-soci-logo" height="36" style="width: 19px;" viewBox="0 0 36 36" width="36" xmlns="http://www.w3.org/2000/svg"><path d="M10.895,0A10.916,10.916,0,0,0,0,10.895V25.105A10.916,10.916,0,0,0,10.895,36H25.105A10.917,10.917,0,0,0,36,25.105V10.895A10.916,10.916,0,0,0,25.105,0Zm0,2.842H25.105a8.032,8.032,0,0,1,8.053,8.053V25.105a8.033,8.033,0,0,1-8.053,8.053H10.895a8.032,8.032,0,0,1-8.053-8.053V10.895A8.031,8.031,0,0,1,10.895,2.842ZM27.474,6.632a1.895,1.895,0,1,0,1.852,1.895A1.895,1.895,0,0,0,27.474,6.632ZM18,8.526A9.474,9.474,0,1,0,27.474,18,9.5,9.5,0,0,0,18,8.526Zm0,2.842A6.632,6.632,0,1,1,11.368,18,6.611,6.611,0,0,1,18,11.368Z" fill="#fff" id="ic_instagram"></path></svg>