<svg height="36" style="width: 18px;" viewBox="0 0 36 40.975" width="36" xmlns="http://www.w3.org/2000/svg"><g class="new-footer-soci-logo" data-name="tik-tok (2)" id="tik-tok_2_" transform="translate(-31.423 -0.39)"><path d="M67.4,10.65a10.324,10.324,0,0,1-6.238-2.085A10.348,10.348,0,0,1,57.24,2.327a10.4,10.4,0,0,1-.2-1.937h-6.69V18.671l-.008,10.014a6.065,6.065,0,1,1-4.16-5.746V16.146A13.165,13.165,0,0,0,44.253,16a12.829,12.829,0,0,0-9.64,4.311,12.572,12.572,0,0,0,.567,17.336,13.052,13.052,0,0,0,1.209,1.056,12.83,12.83,0,0,0,7.864,2.659,13.165,13.165,0,0,0,1.929-.142,12.787,12.787,0,0,0,7.143-3.572,12.526,12.526,0,0,0,3.758-8.914l-.034-14.953a16.953,16.953,0,0,0,10.373,3.525V10.648s-.018,0-.019,0Z" data-name="Path 13" fill="#fff" id="Path_13"></path></g></svg>