<svg class="new-footer-soci-logo" height="29.555" style="width: 20px;" viewBox="0 0 299 271" width="36" xmlns="http://www.w3.org/2000/svg"><path d="M0 8.10623e-06C12.1433 -0.418756 24.2849 -0.737704 36.434 -0.932611C42.0771 -1.02621 47.7152 -1.1529 53.3555 -1.3579C58.8089 -1.55485 64.2577 -1.66137 69.7144 -1.70778C71.7858 -1.74081 73.8569 -1.80532 75.9262 -1.90313C91.6766 -2.61736 91.6766 -2.61736 97.2443 1.76755C101.389 6.05191 104.648 10.8254 107.726 15.9134C109.304 18.4971 111.087 20.8876 112.938 23.2813C113.96 24.6861 114.981 26.0923 116 27.5C121.118 34.5092 126.379 41.3863 131.737 48.2129C136.669 54.5197 141.416 60.9528 146.141 67.4153C150.284 73.0673 154.531 78.6005 159 84C163.184 80.7345 166.64 77.2727 170.082 73.2383C172.182 70.788 174.335 68.3928 176.5 66C181.299 60.6767 186.041 55.3114 190.68 49.8477C196.748 42.7098 202.951 35.7383 209.332 28.8789C213.663 24.2052 217.815 19.3905 221.949 14.543C222.748 13.608 222.748 13.608 223.562 12.6541C224.623 11.4116 225.682 10.1677 226.738 8.92213C227.231 8.34455 227.723 7.76697 228.23 7.17188C228.668 6.65722 229.105 6.14257 229.555 5.61231C230.032 5.08025 230.509 4.54819 231 4.00001C231.746 2.92396 231.746 2.92396 232.506 1.82618C236.553 -1.1374 240.793 -0.490609 245.672 -0.390617C246.709 -0.384957 247.747 -0.379297 248.816 -0.373466C252.128 -0.351087 255.439 -0.300886 258.75 -0.249992C260.996 -0.229929 263.242 -0.211678 265.488 -0.195304C270.993 -0.151217 276.496 -0.0842893 282 8.10623e-06C280.2 3.86139 277.719 6.67956 274.812 9.75001C273.807 10.8302 272.801 11.9109 271.797 12.9922C271.312 13.5127 270.826 14.0331 270.326 14.5693C266.517 18.6787 262.892 22.9515 259.258 27.2149C258.235 28.4142 257.211 29.6134 256.188 30.8125C255.67 31.4186 255.153 32.0247 254.62 32.6492C251.415 36.3905 248.148 40.0611 244.812 43.6875C241.642 47.1402 238.62 50.6553 235.688 54.3125C231.612 59.3692 227.246 64.0835 222.798 68.8079C219.555 72.2704 216.466 75.7928 213.5 79.5C209.503 84.4966 205.201 89.1334 200.817 93.7866C196.622 98.2635 192.712 102.884 188.902 107.695C187.049 109.941 185.092 111.978 183 114C184.35 117.897 186.058 120.518 188.75 123.625C193.031 128.726 197.009 133.998 200.938 139.375C205.633 145.793 210.38 152.154 215.25 158.441C224.083 169.847 232.791 181.352 241.426 192.908C245.539 198.405 249.705 203.859 253.875 209.313C259.028 216.055 264.114 222.839 269.125 229.688C273.757 236.016 278.483 242.258 283.312 248.438C283.893 249.18 284.473 249.923 285.071 250.688C285.634 251.409 286.197 252.129 286.777 252.871C289.664 256.565 292.538 260.268 295.375 264C296.084 264.928 296.793 265.856 297.523 266.812C299 269 299 269 299 271C286.917 271.302 274.836 271.533 262.75 271.674C257.137 271.741 251.527 271.833 245.916 271.981C240.495 272.123 235.076 272.2 229.654 272.233C227.591 272.257 225.528 272.304 223.466 272.374C207.734 272.89 207.734 272.89 203.167 269.733C199.623 266.288 197.349 262.31 195 258C193.909 256.514 192.795 255.044 191.637 253.609C190.653 252.323 189.67 251.037 188.688 249.75C187.577 248.297 186.466 246.844 185.355 245.391C184.8 244.664 184.245 243.938 183.673 243.189C180.95 239.626 178.225 236.063 175.5 232.5C174.417 231.083 173.333 229.667 172.25 228.25C171.714 227.549 171.178 226.848 170.625 226.125C168.188 222.938 168.188 222.938 165.75 219.75C165.213 219.048 164.677 218.347 164.124 217.624C163.044 216.212 161.965 214.8 160.886 213.388C158.119 209.769 155.35 206.152 152.574 202.539C146.608 194.767 140.699 186.971 135 179C131.403 180.495 129.369 182.527 126.812 185.438C125.623 186.789 125.623 186.789 124.41 188.168C122.145 190.829 119.94 193.527 117.75 196.25C113.651 201.323 109.268 206.061 104.8 210.805C100.758 215.122 97.0043 219.605 93.3086 224.223C90.6472 227.424 87.8454 230.462 85 233.5C81.3511 237.396 77.843 241.333 74.5 245.5C70.6427 250.306 66.552 254.833 62.3359 259.322C61.8603 259.83 61.3846 260.337 60.8945 260.859C60.4385 261.334 59.9825 261.808 59.5127 262.297C57.969 263.955 57.969 263.955 56.7946 265.814C54.736 268.767 53.1784 270.697 49.6117 271.613C46.6884 271.81 43.8422 271.787 40.9141 271.684C39.3287 271.669 39.3287 271.669 37.7113 271.654C34.3477 271.614 30.9875 271.527 27.625 271.438C25.3399 271.402 23.0547 271.37 20.7695 271.342C15.1786 271.265 9.58952 271.148 4 271C4.40797 270.526 4.81595 270.051 5.23628 269.563C5.77359 268.937 6.31091 268.311 6.8645 267.667C7.39623 267.048 7.92795 266.429 8.47578 265.792C10.4247 263.501 12.3064 261.159 14.1875 258.812C17.938 254.205 21.8686 249.828 25.9128 245.482C28.9037 242.249 31.7375 238.933 34.5 235.5C38.135 230.982 41.9671 226.722 45.9141 222.48C48.9044 219.248 51.7379 215.933 54.5 212.5C58.135 207.982 61.9671 203.722 65.9141 199.48C68.9044 196.248 71.7379 192.933 74.5 189.5C78.135 184.982 81.9671 180.722 85.9141 176.48C89.6825 172.407 93.174 168.148 96.6523 163.824C100.906 158.707 105.46 153.862 110 149C108.451 145.592 106.451 142.789 104.188 139.813C103.796 139.296 103.404 138.779 103 138.246C101.671 136.494 100.336 134.747 99 133C98.5263 132.379 98.0525 131.759 97.5645 131.119C94.9095 127.641 92.2507 124.165 89.5898 120.691C85.7177 115.634 81.8586 110.567 78 105.5C73.1731 99.1617 68.3418 92.8269 63.5 86.5C58.6582 80.1731 53.827 73.8382 49 67.5C44.1098 61.079 39.2161 54.6608 34.3125 48.25C33.5234 47.2181 33.5234 47.2181 32.7183 46.1653C30.0921 42.7319 27.4636 39.3003 24.832 35.8711C22.1402 32.3621 19.4565 28.847 16.7769 25.3286C15.5103 23.6687 14.2407 22.0111 12.9692 20.355C10.8684 17.6169 8.77721 14.8716 6.6875 12.125C5.69001 10.8308 5.69001 10.8308 4.67236 9.51051C4.06248 8.70524 3.45259 7.89998 2.82422 7.07032C2.27854 6.35634 1.73287 5.64236 1.17065 4.90675C0 3.00001 0 3.00001 0 8.10623e-06ZM54 26C57.6768 31.6793 61.5212 37.0841 65.8125 42.3125C70.1918 47.7182 74.4442 53.192 78.5938 58.7774C81.5055 62.6916 84.472 66.5638 87.4375 70.4375C88.2766 71.5336 88.2766 71.5336 89.1326 72.6519C93.2198 77.9876 97.3177 83.3149 101.418 88.6406C106.068 94.6864 110.695 100.75 115.327 106.811C118.05 110.374 120.775 113.937 123.5 117.5C126.786 121.796 130.071 126.093 133.355 130.391C138.229 136.767 143.104 143.141 148 149.5C153.459 156.591 158.893 163.7 164.327 170.811C167.05 174.374 169.775 177.937 172.5 181.5C175.786 185.796 179.071 190.093 182.355 194.391C187.229 200.767 192.104 207.141 197 213.5C200.941 218.622 204.88 223.746 208.812 228.875C209.352 229.577 209.891 230.279 210.447 231.002C210.966 231.679 211.485 232.357 212.02 233.055C212.534 233.71 213.048 234.365 213.578 235.04C215 237 215 237 216.065 239.048C217.217 241.164 218.095 242.511 220 244C224.135 244.856 228.114 244.661 232.312 244.438C233.435 244.406 234.557 244.374 235.713 244.342C238.478 244.259 241.238 244.145 244 244C241.036 238.484 237.587 233.702 233.688 228.813C228.582 222.331 223.559 215.8 218.625 209.188C213.47 202.287 208.286 195.411 203.062 188.563C202.402 187.696 201.741 186.83 201.06 185.938C199.041 183.291 197.02 180.646 195 178C187.156 167.726 179.316 157.45 171.577 147.096C167.418 141.539 163.212 136.018 159 130.5C153.827 123.723 148.682 116.927 143.578 110.098C139.418 104.54 135.212 99.0183 131 93.5C125.829 86.7257 120.687 79.9325 115.585 73.1065C110.676 66.5476 105.703 60.0376 100.733 53.5247C86.3634 34.6857 86.3634 34.6857 84.897 31.9185C83.4475 29.4588 82.2351 27.7916 80 26C75.5058 25.0143 71.1981 25.2424 66.625 25.5C64.8055 25.5541 64.8055 25.5541 62.9492 25.6094C59.9629 25.7034 56.9831 25.8347 54 26Z" data-name="twitter (1)" fill="white" id="twitter_1_"></path></svg>