<svg height="36" style="width: 25px;" viewBox="0 0 49.499 36" width="49.499" xmlns="http://www.w3.org/2000/svg"><path d="M24.589,0A98.139,98.139,0,0,0,7.013,1.3l-.024.007A7.63,7.63,0,0,0,.881,7.194l0,.012A62,62,0,0,0,0,18,52.206,52.206,0,0,0,1,28.83a7.7,7.7,0,0,0,6.1,5.861.252.252,0,0,0,.042.011A100.345,100.345,0,0,0,24.694,36a100.571,100.571,0,0,0,17.559-1.3l.042-.011A7.633,7.633,0,0,0,48.4,28.806l0-.024A71.926,71.926,0,0,0,49.5,17.931v-.037A52.012,52.012,0,0,0,48.4,6.97a7.693,7.693,0,0,0-6.105-5.876q-.067-.015-.135-.025A136.983,136.983,0,0,0,24.59,0Zm0,3.375a134.572,134.572,0,0,1,17,1.026,4.39,4.39,0,0,1,3.5,3.181l0,.029a48.292,48.292,0,0,1,1.035,10.259,67.893,67.893,0,0,1-1.044,10.35,4.182,4.182,0,0,1-3.507,3.174,99.211,99.211,0,0,1-16.877,1.231A99.126,99.126,0,0,1,7.82,31.392a4.393,4.393,0,0,1-3.509-3.186L4.3,28.178A48.388,48.388,0,0,1,3.375,18,58.039,58.039,0,0,1,4.2,7.783,4.186,4.186,0,0,1,7.716,4.6,97.971,97.971,0,0,1,24.589,3.375Zm-3.82,5.088a3.991,3.991,0,0,0-3.894,3.9V22.518a3.994,3.994,0,0,0,5.893,3.405v0l8.989-5.078a3.968,3.968,0,0,0,0-6.811L22.768,8.954a3.791,3.791,0,0,0-2-.49Zm.014,3.327a.763.763,0,0,1,.325.1l8.989,5.08c.457.259.457.675,0,.934l-8.989,5.078a.529.529,0,0,1-.857-.466V12.359a.557.557,0,0,1,.259-.51.5.5,0,0,1,.273-.06Z" fill="#fff" id="ic_youtube"></path></svg>